HIERARCHY
ROOT Hips
{
	OFFSET 0.000000 0.000000 0.000000
	CHANNELS 6 Xposition Yposition Zposition Zrotation Xrotation Yrotation
	JOINT Spine
	{
		OFFSET 0.000000 -0.000000 0.070167
		CHANNELS 6 Xposition Yposition Zposition Zrotation Xrotation Yrotation
		JOINT Spine1
		{
			OFFSET 0.000000 -0.000000 0.166666
			CHANNELS 6 Xposition Yposition Zposition Zrotation Xrotation Yrotation
			JOINT Neck
			{
				OFFSET 0.000000 -0.000000 0.183780
				CHANNELS 6 Xposition Yposition Zposition Zrotation Xrotation Yrotation
				JOINT Head
				{
					OFFSET 0.000000 -0.017114 0.132633
					CHANNELS 6 Xposition Yposition Zposition Zrotation Xrotation Yrotation
					End Site
					{
						OFFSET 0.000000 -0.000000 0.171140
					}
				}
			}
			JOINT LeftShoulder
			{
				OFFSET 0.034466 0.004091 0.144174
				CHANNELS 6 Xposition Yposition Zposition Zrotation Xrotation Yrotation
				JOINT LeftArm
				{
					OFFSET 0.121044 0.000000 0.000000
					CHANNELS 6 Xposition Yposition Zposition Zrotation Xrotation Yrotation
					JOINT LeftForeArm
					{
						OFFSET 0.257070 0.000000 0.000000
						CHANNELS 6 Xposition Yposition Zposition Zrotation Xrotation Yrotation
						JOINT LeftHand
						{
							OFFSET 0.224060 0.000000 0.000000
							CHANNELS 6 Xposition Yposition Zposition Zrotation Xrotation Yrotation
							End Site
							{
								OFFSET 0.128355 0.000000 0.000000
							}
						}
					}
				}
			}
			JOINT RightShoulder
			{
				OFFSET -0.033538 0.004091 0.144174
				CHANNELS 6 Xposition Yposition Zposition Zrotation Xrotation Yrotation
				JOINT RightArm
				{
					OFFSET -0.121044 0.000000 0.000000
					CHANNELS 6 Xposition Yposition Zposition Zrotation Xrotation Yrotation
					JOINT RightForeArm
					{
						OFFSET -0.257070 0.000000 0.000000
						CHANNELS 6 Xposition Yposition Zposition Zrotation Xrotation Yrotation
						JOINT RightHand
						{
							OFFSET -0.224060 0.000000 0.000000
							CHANNELS 6 Xposition Yposition Zposition Zrotation Xrotation Yrotation
							End Site
							{
								OFFSET -0.128355 0.000000 0.000000
							}
						}
					}
				}
			}
		}
	}
	JOINT LeftUpLeg
	{
		OFFSET 0.085570 0.000000 0.000000
		CHANNELS 6 Xposition Yposition Zposition Zrotation Xrotation Yrotation
		JOINT LeftLeg
		{
			OFFSET 0.000000 0.000000 -0.385526
			CHANNELS 6 Xposition Yposition Zposition Zrotation Xrotation Yrotation
			JOINT LeftFoot
			{
				OFFSET 0.000000 0.000000 -0.365921
				CHANNELS 6 Xposition Yposition Zposition Zrotation Xrotation Yrotation
				JOINT LeftToeBase
				{
					OFFSET 0.000000 -0.128355 -0.055620
					CHANNELS 6 Xposition Yposition Zposition Zrotation Xrotation Yrotation
					End Site
					{
						OFFSET 0.000000 -0.034228 0.000000
					}
				}
			}
		}
	}
	JOINT RightUpLeg
	{
		OFFSET -0.085570 0.000000 0.000000
		CHANNELS 6 Xposition Yposition Zposition Zrotation Xrotation Yrotation
		JOINT RightLeg
		{
			OFFSET 0.000000 0.000000 -0.385526
			CHANNELS 6 Xposition Yposition Zposition Zrotation Xrotation Yrotation
			JOINT RightFoot
			{
				OFFSET 0.000000 0.000000 -0.365921
				CHANNELS 6 Xposition Yposition Zposition Zrotation Xrotation Yrotation
				JOINT RightToeBase
				{
					OFFSET 0.000000 -0.128355 -0.055620
					CHANNELS 6 Xposition Yposition Zposition Zrotation Xrotation Yrotation
					End Site
					{
						OFFSET 0.000000 -0.034228 0.000000
					}
				}
			}
		}
	}
}
MOTION
Frames: 4
Frame Time: 0.016667
0.217775 0.002745 0.834883 -12.728250 -8.681144 0.611468 -0.000000 -0.000000 0.070167 -3.865737 -2.350645 0.623983 -0.000000 -0.000000 0.166666 -1.168184 3.952380 -3.596370 -0.000000 -0.000000 0.183780 -2.408010 9.547530 -2.000171 -0.000000 -0.017114 0.132633 -2.646881 2.186990 -2.665704 0.034466 0.004091 0.144174 -9.372077 5.530192 -7.050688 0.121044 -0.000000 0.000000 -31.427866 -4.930349 58.831356 0.257070 0.000000 -0.000000 -101.224995 13.184266 -17.518721 0.224060 0.000000 0.000000 -9.293676 -8.912459 5.969893 -0.033538 0.004091 0.144174 -18.270054 5.928391 7.774985 -0.121044 0.000000 0.000000 29.053784 6.030496 -63.892397 -0.257070 0.000000 -0.000000 98.067030 26.522610 33.721433 -0.224060 0.000000 -0.000000 -1.396870 -14.275030 15.968974 0.085570 -0.000000 -0.000000 8.922553 4.411620 -4.295715 -0.000000 0.000000 -0.385526 7.160448 9.636068 -2.223499 0.000000 0.000000 -0.365921 13.039152 2.469379 -1.022701 -0.000000 -0.128355 -0.055620 -0.000002 0.000000 -0.000001 -0.085570 0.000000 -0.000000 -4.260278 5.708729 9.991411 -0.000000 0.000000 -0.385526 20.363794 22.572158 -12.916823 -0.000000 0.000000 -0.365921 -31.214784 2.666398 -1.181929 -0.000000 -0.128355 -0.055620 -0.000003 0.000001 -0.000001 
0.216901 0.002626 0.835271 -13.129892 -8.944560 0.571365 -0.000000 0.000000 0.070167 -4.417197 -2.741214 0.533236 -0.000000 -0.000000 0.166666 -1.341046 4.211766 -3.665865 -0.000000 -0.000000 0.183780 -2.075252 9.736890 -2.408136 -0.000000 -0.017114 0.132633 -2.213783 2.629854 -1.997566 0.034466 0.004091 0.144174 -9.826692 5.561552 -7.131777 0.121044 0.000000 0.000000 -35.149339 -4.779886 59.686715 0.257070 -0.000000 -0.000000 -100.861315 15.069067 -20.347118 0.224060 0.000000 -0.000000 -9.238658 -10.546156 6.959822 -0.033538 0.004091 0.144174 -18.529808 6.041159 7.817919 -0.121044 -0.000000 0.000000 30.458631 6.214627 -64.660725 -0.257070 -0.000000 0.000000 99.499225 26.702732 33.256768 -0.224060 0.000000 0.000000 -1.368640 -14.538329 15.257008 0.085570 0.000000 -0.000000 9.322173 4.565157 -4.524755 -0.000000 0.000000 -0.385526 7.187282 9.957028 -2.098546 -0.000000 0.000000 -0.365921 13.166074 2.628619 -0.961934 -0.000000 -0.128355 -0.055620 -0.000001 -0.000001 -0.000001 -0.085570 0.000000 -0.000000 -4.651172 6.398593 10.242817 -0.000000 0.000000 -0.385526 21.107363 23.337843 -13.752769 -0.000000 0.000000 -0.365921 -32.194343 3.578589 -0.411700 -0.000000 -0.128355 -0.055620 -0.000001 0.000003 -0.000001 
0.215964 0.002561 0.835721 -13.685973 -9.234864 0.514706 0.000000 -0.000000 0.070167 -4.932421 -3.054238 0.401597 0.000000 -0.000000 0.166666 -1.502734 4.369001 -3.772714 -0.000000 -0.000000 0.183780 -1.785639 10.286657 -2.905435 0.000000 -0.017114 0.132633 -1.806679 2.659813 -1.034132 0.034466 0.004091 0.144174 -10.113792 5.712035 -7.129140 0.121044 -0.000000 -0.000000 -36.643599 -6.207496 60.353785 0.257070 0.000000 0.000000 -101.483156 14.866405 -20.166466 0.224060 0.000000 -0.000000 -8.769450 -10.872259 8.254751 -0.033538 0.004091 0.144174 -18.711283 6.231199 7.889984 -0.121044 0.000000 0.000000 31.657456 6.319997 -65.269240 -0.257070 -0.000000 0.000000 100.797896 26.971130 32.675557 -0.224060 0.000000 0.000000 -1.171483 -14.415674 15.027632 0.085570 -0.000000 -0.000000 9.823094 4.684535 -4.747787 -0.000000 0.000000 -0.385526 7.387376 10.417966 -2.060401 0.000000 0.000000 -0.365921 13.204390 2.793488 -0.762500 -0.000000 -0.128355 -0.055620 -0.000002 -0.000001 0.000000 -0.085570 0.000000 -0.000000 -5.057704 7.069700 10.526122 -0.000000 0.000000 -0.385526 21.871603 23.917745 -14.442467 -0.000000 0.000000 -0.365921 -33.060127 4.451156 -0.158639 -0.000000 -0.128355 -0.055620 0.000001 -0.000004 -0.000004 
0.214943 0.002384 0.835995 -14.477750 -9.590506 0.463802 -0.000000 -0.000000 0.070167 -5.407027 -3.218661 0.148577 0.000000 -0.000000 0.166666 -1.653915 4.454723 -3.816591 0.000000 -0.000000 0.183780 -1.437660 10.830491 -3.303007 0.000000 -0.017114 0.132633 -1.359854 2.670685 -0.166170 0.034466 0.004091 0.144174 -10.157217 5.793090 -7.144768 0.121044 -0.000000 -0.000000 -38.442234 -7.196361 61.024551 0.257070 0.000000 0.000000 -101.785494 15.329311 -20.472194 0.224060 0.000000 -0.000000 -8.536291 -11.068625 10.208764 -0.033538 0.004091 0.144174 -18.776993 6.527035 7.870563 -0.121044 0.000000 0.000000 32.007735 5.939004 -65.589835 -0.257070 0.000000 0.000000 102.546056 26.774072 31.064049 -0.224060 0.000000 -0.000000 -1.011546 -13.626208 14.945458 0.085570 -0.000000 -0.000000 10.449590 4.802347 -5.024932 -0.000000 0.000000 -0.385526 7.921868 11.069544 -2.118760 0.000000 0.000000 -0.365921 12.994572 2.771763 -0.347763 -0.000000 -0.128355 -0.055620 -0.000001 -0.000001 0.000001 -0.085570 -0.000000 -0.000000 -5.144624 7.822247 10.824045 0.000000 0.000000 -0.385526 22.236688 24.239716 -14.982199 -0.000000 0.000000 -0.365921 -34.085093 5.377156 -0.856290 -0.000000 -0.128355 -0.055620 -0.000000 0.000005 0.000001 
